# xmcd
#
# Track frame offsets:
#	150
#	11256
#	23484
#	69820
#	102998
#	117892
#	135246
#	157737
#	170128
#	193245
#	214239
#	225456
#
# Disc length: 3140 seconds
#
# Revision: 1
# Processed by: cddbd v1.5.2PL0 Copyright (c) Steve Scherf et al.
# Submitted via: audiograbber 1.83.01
#
DISCID=8d0c420c
DTITLE=bo diddley - bo diddley
DYEAR=1900
DGENRE=
TTITLE0=diddley daddy
TTITLE1=she's fine she's mine
TTITLE2=i'm a man
TTITLE3=intro: bo diddley vamp
TTITLE4=road runner
TTITLE5=you can't judge a book
TTITLE6=doctor jeckyll
TTITLE7=pretty thing
TTITLE8=mona
TTITLE9=everleen
TTITLE10=bring it to jeromee
TTITLE11=i don't know where i've been
EXTD=
EXTT0=
EXTT1=
EXTT2=
EXTT3=
EXTT4=
EXTT5=
EXTT6=
EXTT7=
EXTT8=
EXTT9=
EXTT10=
EXTT11=
PLAYORDER=
